<svg width="38px" height="42px" viewBox="0 0 38 42" version="1.1" xmlns="http://www.w3.org/2000/svg" xmlns:xlink="http://www.w3.org/1999/xlink">
    <title>Combined Shape</title>
    <g id="Page-1" stroke="none" stroke-width="1" fill="none" fill-rule="evenodd">
        <path d="M25,0 C26.6568542,0 28,1.34314575 28,3 L28,6 L37,6 C37.5522847,6 38,6.44771525 38,7 C38,7.55228475 37.5522847,8 37,8 L34.889,8 L31.409,37.584 C31.1128425,40.10224 28.978595,42 26.443,42 L11.557,42 C9.02140504,42 6.88715749,40.10224 6.591,37.584 L3.111,8 L1,8 C0.44771525,8 0,7.55228475 0,7 C0,6.44771525 0.44771525,6 1,6 L10,6 L10,3 C10,1.34314575 11.3431458,0 13,0 Z M32.875,8 L5.125,8 L8.578,37.351 C8.75594815,38.8614787 10.0360755,40 11.557,40 L26.443,40 C27.9639245,40 29.2440518,38.8614787 29.422,37.351 L32.875,8 Z M22.994,15.037 L23.1106211,15.0437277 C23.6079598,15.1014928 23.994,15.5241642 23.994,16.037 L24.006,27.974 C24.006,28.5262847 23.5582847,28.974 23.006,28.974 L22.8893789,28.9672723 C22.3920402,28.9095072 22.006,28.4868358 22.006,27.974 L21.994,16.037 C21.994,15.4847153 22.4417153,15.037 22.994,15.037 Z M14.994,15.026 L15.1106211,15.0327277 C15.6079598,15.0904928 15.994,15.5131642 15.994,16.026 L16.006,27.963 C16.006,28.5152847 15.5582847,28.963 15.006,28.963 L14.8893789,28.9562723 C14.3920402,28.8985072 14.006,28.4758358 14.006,27.963 L13.994,16.026 C13.994,15.4737153 14.4417153,15.026 14.994,15.026 Z M25,2 L13,2 C12.4477153,2 12,2.44771525 12,3 L12,6 L26,6 L26,3 C26,2.44771525 25.5522847,2 25,2 Z" id="Combined-Shape" fill="#000000" fill-rule="nonzero"></path>
    </g>
</svg>
