<?xml version="1.0" encoding="UTF-8"?>
<svg width="68px" height="90px" viewBox="0 0 68 90" version="1.1" xmlns="http://www.w3.org/2000/svg" xmlns:xlink="http://www.w3.org/1999/xlink">
    <title>Shape</title>
    <g id="Page-1" stroke="none" stroke-width="1" fill="none" fill-rule="evenodd">
        <g id="noun-profile-1444958" transform="translate(0.014, 0.777)" fill="#000000" fill-rule="nonzero">
            <path d="M56.871,57.75 C52.096,56.311 47.266,55.041 46.338,54.799 L42.353,50.814 L42.353,46.03 C42.353,46.03 42.353,46.028 42.353,46.028 C47.228,43.378 50.545,38.214 50.555,32.288 C50.898,32.48 51.291,32.591 51.711,32.591 C53.02,32.591 54.084,31.526 54.084,30.217 L54.084,26.861 C54.084,25.552 53.02,24.487 51.711,24.487 C51.291,24.487 50.898,24.598 50.556,24.79 L50.556,15.655 C50.556,7.023 43.533,0 34.9,0 L32.299,0 C23.666,0 16.643,7.023 16.643,15.655 L16.643,24.79 C16.301,24.598 15.907,24.487 15.488,24.487 C14.179,24.487 13.114,25.552 13.114,26.861 L13.114,30.217 C13.114,31.526 14.179,32.591 15.488,32.591 C15.907,32.591 16.301,32.48 16.644,32.288 C16.654,38.214 19.972,43.379 24.848,46.029 L24.848,50.813 L20.643,55.021 C19.745,55.257 15.148,56.475 10.604,57.862 C0,61.099 0,62.062 0,62.699 L0,76.944 C0,76.958 0.003,76.971 0.004,76.986 C0.005,77.008 0.007,77.03 0.011,77.052 C0.015,77.071 0.02,77.09 0.025,77.108 C0.031,77.127 0.036,77.147 0.044,77.165 C0.051,77.184 0.06,77.201 0.069,77.218 C0.078,77.236 0.087,77.253 0.096,77.27 C0.107,77.287 0.119,77.303 0.132,77.318 C0.144,77.333 0.155,77.348 0.168,77.362 C0.184,77.378 0.202,77.393 0.22,77.407 C0.23,77.416 0.238,77.426 0.249,77.434 C3.376,79.724 6.744,81.698 10.258,83.302 C10.261,83.303 10.265,83.304 10.268,83.306 C10.272,83.307 10.276,83.31 10.281,83.311 C17.74,86.718 25.716,88.446 33.986,88.446 C42.257,88.446 50.232,86.718 57.694,83.313 C57.698,83.312 57.702,83.31 57.707,83.308 C57.709,83.306 57.713,83.305 57.716,83.304 C61.23,81.7 64.598,79.725 67.725,77.436 C67.737,77.428 67.745,77.418 67.754,77.409 C67.772,77.395 67.79,77.38 67.806,77.364 C67.819,77.35 67.83,77.335 67.842,77.32 C67.855,77.304 67.867,77.289 67.878,77.272 C67.889,77.255 67.897,77.238 67.906,77.221 C67.915,77.203 67.924,77.186 67.93,77.167 C67.938,77.148 67.943,77.129 67.948,77.11 C67.954,77.091 67.96,77.072 67.963,77.053 C67.967,77.031 67.969,77.009 67.97,76.987 C67.971,76.973 67.974,76.96 67.974,76.945 L67.974,62.699 C67.973,62.061 67.973,61.097 56.871,57.75 Z M51.711,25.705 C52.349,25.705 52.867,26.224 52.867,26.861 L52.867,30.217 C52.867,30.854 52.348,31.373 51.711,31.373 C51.074,31.373 50.5559986,30.854 50.5559986,30.217 L50.5559986,26.861 C50.555,26.224 51.074,25.705 51.711,25.705 Z M15.487,31.374 C14.849,31.374 14.331,30.855 14.331,30.218 L14.331,26.862 C14.331,26.224 14.85,25.706 15.487,25.706 C16.124,25.706 16.642,26.225 16.642,26.862 L16.642,30.218 C16.642,30.855 16.124,31.374 15.487,31.374 Z M17.86,32.263 L17.86,30.218 L17.86,26.862 L17.86,20.069 C19.448,19.432 25.091,16.875 26.147,12.327 C27.124,13.586 28.846,15.505 31.352,17.217 C34.039,19.053 38.016,20.876 43.215,20.876 C45.097,20.876 47.139,20.635 49.337,20.072 L49.337,26.862 L49.337,30.218 L49.337,32.263 C49.337,40.224 42.86,46.701 34.899,46.701 L32.298,46.701 C24.337,46.701 17.86,40.224 17.86,32.263 Z M32.299,47.919 L34.9,47.919 C37.116,47.919 39.224,47.453 41.135,46.62 L41.135,50.813 L33.6,58.349 L28.752,53.501 L26.065,50.814 L26.065,46.621 C27.976,47.454 30.084,47.919 32.299,47.919 Z M11.119,82.352 L11.119,77.085 C11.119,76.749 10.847,76.477 10.51,76.477 C10.174,76.477 9.902,76.749 9.902,77.085 L9.902,81.788 C6.866,80.338 3.95,78.607 1.216,76.629 L1.216,62.789 C2.051,61.73 10.47,59.012 18.93,56.734 L17.532,58.134 C17.295,58.371 17.295,58.757 17.532,58.994 L25.674,67.136 C25.788,67.25 25.944,67.314 26.105,67.314 C26.266,67.314 26.421,67.25 26.536,67.136 L33.601,60.067 L40.669,67.135 C40.783,67.249 40.938,67.313 41.1,67.313 C41.261,67.313 41.416,67.249 41.531,67.135 L49.673,58.993 C49.787,58.879 49.852,58.724 49.852,58.563 C49.852,58.401 49.788,58.247 49.673,58.132 L48.048,56.507 C56.965,58.886 65.872,61.717 66.759,62.796 L66.759,76.63 C64.026,78.608 61.11,80.339 58.073,81.789 L58.073,77.086 C58.073,76.75 57.801,76.478 57.465,76.478 C57.128,76.478 56.856,76.75 56.856,77.086 L56.856,82.353 C49.648,85.585 41.958,87.228 33.986,87.228 C26.015,87.228 18.324,85.585 11.119,82.352 Z" id="Shape"></path>
        </g>
    </g>
</svg>