<?xml version="1.0" encoding="UTF-8"?>
<svg width="100px" height="100px" viewBox="0 0 100 100" version="1.1" xmlns="http://www.w3.org/2000/svg" xmlns:xlink="http://www.w3.org/1999/xlink">
    <title>Shape</title>
    <g id="Page-1" stroke="none" stroke-width="1" fill="none" fill-rule="evenodd">
        <g id="noun-sidebar-7351676" transform="translate(0.781, 0.7812)" fill="#000000" fill-rule="nonzero">
            <path d="M82.797,0 L15.641,0 C7.016,0 0,7.0156 0,15.641 L0,82.797 C0,91.422 7.0156,98.438 15.641,98.438 L82.797,98.438 C91.422,98.438 98.438,91.4224 98.438,82.797 L98.438,15.641 C98.438,7.016 91.4224,0 82.797,0 L82.797,0 Z M7.813,82.797 L7.813,15.641 C7.813,11.3285 11.3286,7.8129 15.6411,7.8129 L31.0631,7.8129 L31.0631,90.6249 L15.6411,90.6249 C11.3286,90.6249 7.813,87.1093 7.813,82.7968 L7.813,82.797 Z M90.625,82.797 C90.625,87.1095 87.1094,90.6251 82.7969,90.6251 L38.8749,90.6251 L38.8749,7.8131 L82.7969,7.8131 C87.1094,7.8131 90.625,11.3287 90.625,15.6412 L90.625,82.797 Z" id="Shape"></path>
        </g>
    </g>
</svg>